<svg width="32" height="32" viewBox="0 0 32 32" fill="none" xmlns="http://www.w3.org/2000/svg">
<g id="logo/d">
<g id="&#230;&#164;&#173;&#229;&#156;&#134;&#229;&#189;&#162; + &#230;&#164;&#173;&#229;&#156;&#134;&#229;&#189;&#162;&#229;&#164;&#135;&#228;&#187;&#189; + &#230;&#164;&#173;&#229;&#156;&#134;&#229;&#189;&#162;&#229;&#164;&#135;&#228;&#187;&#189; 2 &#232;&#146;&#153;&#231;&#137;&#136;">
<g id="Object">
<mask id="mask0_5248_1569" style="mask-type:luminance" maskUnits="userSpaceOnUse" x="0" y="0" width="32" height="32">
<path id="&#232;&#146;&#153;&#231;&#137;&#136;" d="M19.8945 0C26.513 0 31.8909 5.41296 31.9978 12.1317L31.9994 12.3357V19.6638C31.9994 26.4085 26.6877 31.8889 20.0947 31.9978L19.8945 31.9995H0.598633V13.8969C0.598633 12.4804 1.72547 11.332 3.11549 11.332C4.48272 11.332 5.59532 12.443 5.63144 13.8274L5.63234 13.8969V26.8698H19.8945C23.7608 26.8698 26.9023 23.7078 26.9647 19.783L26.9657 19.6638V12.3357C26.9657 8.39571 23.8628 5.19429 20.0114 5.13065L19.8945 5.12969H12.9851C11.5951 5.12969 10.4682 3.98137 10.4682 2.56484C10.4682 1.17154 11.5584 0.0377219 12.9169 0.000921938L12.9851 0H19.8945Z" fill="white"/>
</mask>
<g mask="url(#mask0_5248_1569)">
<path id="&#232;&#183;&#175;&#229;&#190;&#132;" d="M19.8942 0C26.5127 0 31.8906 5.41296 31.9975 12.1317L31.9991 12.3357V19.6638C31.9991 25.5473 27.9573 30.4687 22.5489 31.7019C22.7892 31.6468 23.0267 31.5847 23.2614 31.5155C25.5683 28.7303 26.9588 25.1312 26.9588 21.2011C26.9588 20.9754 26.9542 20.7508 26.9451 20.5274L26.9358 20.3273C26.9519 20.1477 26.9615 19.9661 26.9645 19.783L26.9654 19.6638V12.3357C26.9654 12.1209 26.9562 11.9083 26.9381 11.6983C26.9518 11.4649 26.9588 11.2296 26.9588 10.9927C26.9588 5.93806 23.7871 1.63832 19.3612 0.0475321L19.2267 0.000157651L12.9815 0.000531924L12.9134 0.00145386L12.8262 0.00533698C12.8577 0.00304252 12.8871 0.00172259 12.9167 0.000921938L12.9848 0H19.8942Z" fill="url(#paint0_linear_5248_1569)"/>
</g>
</g>
<g id="&#231;&#188;&#150;&#231;&#187;&#132; 4&#229;&#164;&#135;&#228;&#187;&#189; 2">
<g id="&#230;&#164;&#173;&#229;&#156;&#134;&#229;&#189;&#162; + &#230;&#164;&#173;&#229;&#156;&#134;&#229;&#189;&#162;&#229;&#164;&#135;&#228;&#187;&#189; + &#230;&#164;&#173;&#229;&#156;&#134;&#229;&#189;&#162;&#229;&#164;&#135;&#228;&#187;&#189; 2 &#232;&#146;&#153;&#231;&#137;&#136;_2">
<path id="&#232;&#183;&#175;&#229;&#190;&#132;_2" d="M2.64764 11.3763C1.50257 11.5959 0.631199 12.6057 0.599891 13.8287L0.59902 13.8969L0.598994 23.605C1.80246 25.2092 3.52649 26.3831 5.51091 26.8425L5.62941 26.869L5.67191 26.8706L19.8916 26.8703C23.5852 26.8703 26.6196 24.0072 26.9374 20.3273C26.9534 20.624 26.9594 20.9002 26.9594 21.2011C26.9594 25.1312 25.569 28.7303 23.262 31.5155C22.2531 31.8129 21.1902 31.9802 20.0918 31.9983L19.8916 32H0.595703V13.8974C0.595703 12.6608 1.45453 11.6285 2.59753 11.3863L2.64764 11.3763Z" fill="#82B0FF"/>
<path id="&#232;&#183;&#175;&#229;&#190;&#132;_3" d="M19.2269 0.00012207C23.7229 1.5515 26.959 5.88697 26.959 10.9927C26.959 11.2371 26.9529 11.4576 26.9383 11.6982C26.6348 8.04564 23.6566 5.19143 20.0081 5.13115L19.8911 5.13018H12.9817C11.5917 5.13018 10.4648 3.98186 10.4648 2.56534C10.4648 1.17204 11.555 0.0382182 12.9136 0.00141828L12.9817 0.000496344L19.2269 0.00012207Z" fill="#82B0FF"/>
<path id="&#232;&#183;&#175;&#229;&#190;&#132;_4" d="M3.11551 11.332C4.48275 11.332 5.59535 12.443 5.63146 13.8274L5.63237 13.8969V26.8698C3.59672 26.4308 1.82665 25.2419 0.598633 23.605L0.598658 13.8969C0.598658 12.4804 1.72549 11.332 3.11551 11.332Z" fill="url(#paint1_linear_5248_1569)"/>
</g>
</g>
</g>
<path id="&#229;&#189;&#162;&#231;&#138;&#182;&#231;&#187;&#147;&#229;&#144;&#136;" fill-rule="evenodd" clip-rule="evenodd" d="M7.35081 1.73133C7.35081 1.24734 6.96363 0.85498 6.48601 0.85498H0.864801C0.387185 0.85498 0 1.24734 0 1.73133V7.42763C0 7.91162 0.387185 8.30398 0.864801 8.30398L4.45395 8.30672C5.70194 8.30767 6.9178 8.70245 7.92831 9.43482C9.21674 10.3686 10.0649 11.7722 10.3066 13.3199V21.2752C10.3066 21.5513 10.5304 21.775 10.8064 21.775H21.7919C22.0679 21.775 22.2917 21.5513 22.2917 21.2752V10.7592C22.2917 10.4832 22.0679 10.2594 21.7919 10.2594H12.8467C11.7054 10.1745 10.6096 9.76104 9.6937 9.0645C8.21752 7.94183 7.35081 6.19381 7.35081 4.33922V1.73133Z" fill="url(#paint2_linear_5248_1569)"/>
</g>
<defs>
<linearGradient id="paint0_linear_5248_1569" x1="10.9514" y1="8.2081" x2="32.4552" y2="31.2768" gradientUnits="userSpaceOnUse">
<stop stop-color="#4187FF"/>
<stop offset="0.340008" stop-color="#1A67FF"/>
<stop offset="1" stop-color="#4D49D1"/>
</linearGradient>
<linearGradient id="paint1_linear_5248_1569" x1="-2.7324" y1="14.0747" x2="8.96753" y2="19.0913" gradientUnits="userSpaceOnUse">
<stop stop-color="#7AB4FF"/>
<stop offset="0.54277" stop-color="#1A67FF"/>
<stop offset="1" stop-color="#4D49D1"/>
</linearGradient>
<linearGradient id="paint2_linear_5248_1569" x1="-23.8106" y1="7.40374" x2="5.97425" y2="42.0648" gradientUnits="userSpaceOnUse">
<stop stop-color="#7AB4FF"/>
<stop offset="0.352463" stop-color="#1A67FF"/>
<stop offset="1" stop-color="#5B41F8"/>
</linearGradient>
</defs>
</svg>
