<svg width="32" height="32" viewBox="0 0 32 32" fill="none" xmlns="http://www.w3.org/2000/svg">
<g id="Frame 30315">
<g id="Vector">
<path d="M5.25548 3.41333C4.55359 3.41333 3.94026 3.88734 3.7633 4.56656L0.959961 15.3264L2.52176 11.6664L5.26338 5.69126C5.3368 5.53125 5.56286 5.52762 5.64138 5.68519L8.01511 10.4487L9.82133 5.16517C9.87756 5.00068 10.0981 4.97224 10.1942 5.11709L13.1364 9.55093C14.0803 9.23318 16.1324 9.11938 17.7041 10.7372C18.1831 11.2302 18.8852 11.5053 19.5342 11.2789L25.8968 9.05913C26.2711 8.92852 26.6689 9.17391 26.6767 9.57032C26.7162 11.5907 26.0384 15.2164 22.9937 18.0741C21.7094 19.2794 20.2144 20.1333 18.6958 21.0006C15.8166 22.645 12.8525 24.3378 11.0785 28.5671H18.516C23.8818 28.5671 28.6567 25.1628 30.4059 20.0902C33.2221 11.923 27.1551 3.41333 18.516 3.41333H5.25548Z" fill="url(#paint0_linear_5285_1684)"/>
<path d="M30.3002 20.3847C28.4704 25.2941 23.7773 28.5671 18.516 28.5671H11.0785C12.8525 24.3378 15.8166 22.645 18.6958 21.0006C20.2144 20.1333 21.7094 19.2794 22.9937 18.0741C26.0384 15.2164 26.7162 11.5907 26.6767 9.57032C26.6747 9.47238 26.649 9.38366 26.6057 9.30755L26.6154 9.29218L30.3002 20.3847Z" fill="url(#paint1_linear_5285_1684)"/>
<path d="M18.3152 11.6052L14.3758 13.1977C14.5714 13.5609 15.2643 14.2035 16.4713 13.8682C17.6782 13.533 18.2035 12.2198 18.3152 11.6052Z" fill="#2B5FF5"/>
</g>
</g>
<defs>
<linearGradient id="paint0_linear_5285_1684" x1="19.4837" y1="28.5671" x2="19.4837" y2="1.34128" gradientUnits="userSpaceOnUse">
<stop stop-color="#2951F2"/>
<stop offset="0.475" stop-color="#309CFF"/>
<stop offset="1" stop-color="#5136FF"/>
</linearGradient>
<linearGradient id="paint1_linear_5285_1684" x1="13.8407" y1="15.0469" x2="20.8748" y2="25.8505" gradientUnits="userSpaceOnUse">
<stop stop-color="#3E3AFD"/>
<stop offset="1" stop-color="#3098FF"/>
</linearGradient>
</defs>
</svg>
